{
    "accessors" : [
        {
            "bufferView" : 0, 
            "componentType" : 5121, 
            "count" : 138, 
            "max" : [
                79
            ], 
            "min" : [
                0
            ], 
            "type" : "SCALAR"
        }, 
        {
            "bufferView" : 1, 
            "componentType" : 5126, 
            "count" : 80, 
            "max" : [
                1.0, 
                0.16270403563976288, 
                1.0
            ], 
            "min" : [
                -1.0, 
                0.0, 
                -1.0
            ], 
            "type" : "VEC3"
        }, 
        {
            "bufferView" : 2, 
            "componentType" : 5126, 
            "count" : 80, 
            "max" : [
                0.8092048168182373, 
                1.0, 
                0.8092049360275269
            ], 
            "min" : [
                -0.8092048764228821, 
                0.5650477409362793, 
                -0.8092049956321716
            ], 
            "type" : "VEC3"
        }, 
        {
            "bufferView" : 3, 
            "componentType" : 5126, 
            "count" : 80, 
            "max" : [
                0.9998629093170166, 
                0.9998629987239838
            ], 
            "min" : [
                0.00013700127601623535, 
                0.00013709068298339844
            ], 
            "type" : "VEC2"
        }
    ], 
    "asset" : {
        "generator" : "Khronos Blender glTF 2.0 exporter", 
        "version" : "2.0"
    }, 
    "bufferViews" : [
        {
            "buffer" : 0, 
            "byteLength" : 138, 
            "byteOffset" : 0, 
            "target" : 34963
        }, 
        {
            "buffer" : 0, 
            "byteLength" : 960, 
            "byteOffset" : 140, 
            "target" : 34962
        }, 
        {
            "buffer" : 0, 
            "byteLength" : 960, 
            "byteOffset" : 1100, 
            "target" : 34962
        }, 
        {
            "buffer" : 0, 
            "byteLength" : 640, 
            "byteOffset" : 2060, 
            "target" : 34962
        }
    ], 
    "buffers" : [
        {
            "byteLength" : 2700, 
            "uri" : "car_showcase.bin"
        }
    ], 
    "images" : [
        {
            "uri" : "color.png"
        }
    ], 
    "materials" : [
        {
            "name" : "surface", 
            "pbrMetallicRoughness" : {
                "baseColorFactor" : [
                    0.6400000190734865, 
                    0.6400000190734865, 
                    0.6400000190734865, 
                    1.0
                ], 
                "baseColorTexture" : {
                    "index" : 0
                }, 
                "metallicFactor" : 0.0
            }
        }
    ], 
    "meshes" : [
        {
            "name" : "Circle", 
            "primitives" : [
                {
                    "attributes" : {
                        "NORMAL" : 2, 
                        "POSITION" : 1, 
                        "TEXCOORD_0" : 3
                    }, 
                    "indices" : 0, 
                    "material" : 0
                }
            ]
        }
    ], 
    "nodes" : [
        {
            "mesh" : 0, 
            "name" : "Circle"
        }
    ], 
    "samplers" : [
        {}
    ], 
    "scene" : 0, 
    "scenes" : [
        {
            "name" : "Scene", 
            "nodes" : [
                0
            ]
        }
    ], 
    "textures" : [
        {
            "sampler" : 0, 
            "source" : 0
        }
    ]
}
