{
    "accessors" : [
        {
            "bufferView" : 0, 
            "componentType" : 5121, 
            "count" : 783, 
            "max" : [
                147
            ], 
            "min" : [
                0
            ], 
            "type" : "SCALAR"
        }, 
        {
            "bufferView" : 1, 
            "componentType" : 5126, 
            "count" : 148, 
            "max" : [
                0.18806569278240204, 
                1.1031402349472046, 
                1.1031403541564941
            ], 
            "min" : [
                -0.5425892472267151, 
                -1.1019470691680908, 
                -1.1031403541564941
            ], 
            "type" : "VEC3"
        }, 
        {
            "bufferView" : 2, 
            "componentType" : 5126, 
            "count" : 148, 
            "max" : [
                0.999969482421875, 
                0.9858089089393616, 
                0.981841504573822
            ], 
            "min" : [
                -0.9917905330657959, 
                -0.9806817770004272, 
                -0.9854121804237366
            ], 
            "type" : "VEC3"
        }, 
        {
            "bufferView" : 3, 
            "componentType" : 5121, 
            "count" : 864, 
            "max" : [
                143
            ], 
            "min" : [
                0
            ], 
            "type" : "SCALAR"
        }, 
        {
            "bufferView" : 4, 
            "componentType" : 5126, 
            "count" : 144, 
            "max" : [
                0.4544243812561035, 
                1.4726461172103882, 
                1.4726462364196777
            ], 
            "min" : [
                -0.4544246196746826, 
                -1.4726462364196777, 
                -1.4726462364196777
            ], 
            "type" : "VEC3"
        }, 
        {
            "bufferView" : 5, 
            "componentType" : 5126, 
            "count" : 144, 
            "max" : [
                0.9631336331367493, 
                0.999969482421875, 
                0.999969482421875
            ], 
            "min" : [
                -0.9631336331367493, 
                -1.0, 
                -0.999969482421875
            ], 
            "type" : "VEC3"
        }
    ], 
    "asset" : {
        "generator" : "Khronos Blender glTF 2.0 exporter", 
        "version" : "2.0"
    }, 
    "bufferViews" : [
        {
            "buffer" : 0, 
            "byteLength" : 783, 
            "byteOffset" : 0, 
            "target" : 34963
        }, 
        {
            "buffer" : 0, 
            "byteLength" : 1776, 
            "byteOffset" : 784, 
            "target" : 34962
        }, 
        {
            "buffer" : 0, 
            "byteLength" : 1776, 
            "byteOffset" : 2560, 
            "target" : 34962
        }, 
        {
            "buffer" : 0, 
            "byteLength" : 864, 
            "byteOffset" : 4336, 
            "target" : 34963
        }, 
        {
            "buffer" : 0, 
            "byteLength" : 1728, 
            "byteOffset" : 5200, 
            "target" : 34962
        }, 
        {
            "buffer" : 0, 
            "byteLength" : 1728, 
            "byteOffset" : 6928, 
            "target" : 34962
        }
    ], 
    "buffers" : [
        {
            "byteLength" : 8656, 
            "uri" : "wheel.bin"
        }
    ], 
    "materials" : [
        {
            "name" : "Material", 
            "pbrMetallicRoughness" : {
                "baseColorFactor" : [
                    0.008016691476355364, 
                    0.008016691476355364, 
                    0.008016691476355364, 
                    1.0
                ], 
                "metallicFactor" : 0.0
            }
        }, 
        {
            "name" : "mirror", 
            "pbrMetallicRoughness" : {
                "baseColorFactor" : [
                    0.6400000190734865, 
                    0.6400000190734865, 
                    0.6400000190734865, 
                    1.0
                ], 
                "metallicFactor" : 0.0
            }
        }
    ], 
    "meshes" : [
        {
            "name" : "Circle.001", 
            "primitives" : [
                {
                    "attributes" : {
                        "NORMAL" : 2, 
                        "POSITION" : 1
                    }, 
                    "indices" : 0, 
                    "material" : 1
                }, 
                {
                    "attributes" : {
                        "NORMAL" : 5, 
                        "POSITION" : 4
                    }, 
                    "indices" : 3, 
                    "material" : 0
                }
            ]
        }
    ], 
    "nodes" : [
        {
            "mesh" : 0, 
            "name" : "wheel", 
            "scale" : [
                0.23999999463558197, 
                0.23999999463558197, 
                0.23999999463558197
            ]
        }
    ], 
    "scene" : 0, 
    "scenes" : [
        {
            "name" : "Scene", 
            "nodes" : [
                0
            ]
        }
    ]
}
