{
    "accessors" : [
        {
            "bufferView" : 0, 
            "componentType" : 5123, 
            "count" : 7200, 
            "max" : [
                1399
            ], 
            "min" : [
                0
            ], 
            "type" : "SCALAR"
        }, 
        {
            "bufferView" : 1, 
            "componentType" : 5126, 
            "count" : 1400, 
            "max" : [
                283.28594970703125, 
                63.566165924072266, 
                150.88510131835938
            ], 
            "min" : [
                -253.89561462402344, 
                -53.49708938598633, 
                -174.91946411132812
            ], 
            "type" : "VEC3"
        }, 
        {
            "bufferView" : 2, 
            "componentType" : 5126, 
            "count" : 1400, 
            "max" : [
                0.99945068359375, 
                0.9998779296875, 
                0.999969482421875
            ], 
            "min" : [
                -0.9978331923484802, 
                -0.6224555373191833, 
                -0.999969482421875
            ], 
            "type" : "VEC3"
        }, 
        {
            "bufferView" : 3, 
            "componentType" : 5126, 
            "count" : 1400, 
            "max" : [
                0.9999800324440002, 
                0.9972771406173706, 
                0.9981887936592102, 
                1.0
            ], 
            "min" : [
                -0.9981549382209778, 
                -0.9999755620956421, 
                -0.9990022778511047, 
                1.0
            ], 
            "type" : "VEC4"
        }, 
        {
            "bufferView" : 4, 
            "componentType" : 5126, 
            "count" : 1400, 
            "max" : [
                0.8316937685012817, 
                0.9999088160620886
            ], 
            "min" : [
                9.118393791140988e-05, 
                9.107589721679688e-05
            ], 
            "type" : "VEC2"
        }
    ], 
    "asset" : {
        "generator" : "Khronos Blender glTF 2.0 exporter", 
        "version" : "2.0"
    }, 
    "bufferViews" : [
        {
            "buffer" : 0, 
            "byteLength" : 14400, 
            "byteOffset" : 0, 
            "target" : 34963
        }, 
        {
            "buffer" : 0, 
            "byteLength" : 16800, 
            "byteOffset" : 14400, 
            "target" : 34962
        }, 
        {
            "buffer" : 0, 
            "byteLength" : 16800, 
            "byteOffset" : 31200, 
            "target" : 34962
        }, 
        {
            "buffer" : 0, 
            "byteLength" : 22400, 
            "byteOffset" : 48000, 
            "target" : 34962
        }, 
        {
            "buffer" : 0, 
            "byteLength" : 11200, 
            "byteOffset" : 70400, 
            "target" : 34962
        }
    ], 
    "buffers" : [
        {
            "byteLength" : 81600, 
            "uri" : "track4.bin"
        }
    ], 
    "meshes" : [
        {
            "name" : "Mesh.007", 
            "primitives" : [
                {
                    "attributes" : {
                        "NORMAL" : 2, 
                        "POSITION" : 1, 
                        "TANGENT" : 3, 
                        "TEXCOORD_0" : 4
                    }, 
                    "indices" : 0
                }
            ]
        }
    ], 
    "nodes" : [
        {
            "mesh" : 0, 
            "name" : "NurbsPath"
        }
    ], 
    "scene" : 0, 
    "scenes" : [
        {
            "name" : "Scene", 
            "nodes" : [
                0
            ]
        }
    ]
}
