{
    "accessors" : [
        {
            "bufferView" : 0, 
            "componentType" : 5123, 
            "count" : 120984, 
            "max" : [
                20448
            ], 
            "min" : [
                0
            ], 
            "type" : "SCALAR"
        }, 
        {
            "bufferView" : 1, 
            "componentType" : 5126, 
            "count" : 20449, 
            "max" : [
                8000.00048828125, 
                7999.982421875, 
                176.564453125
            ], 
            "min" : [
                -8000.00048828125, 
                -8000.0185546875, 
                -796.2474975585938
            ], 
            "type" : "VEC3"
        }, 
        {
            "bufferView" : 2, 
            "componentType" : 5126, 
            "count" : 20449, 
            "max" : [
                0.6544694304466248, 
                0.6560869216918945, 
                -0.7270119190216064
            ], 
            "min" : [
                -0.6123844385147095, 
                -0.617114782333374, 
                -1.0
            ], 
            "type" : "VEC3"
        }, 
        {
            "bufferView" : 3, 
            "componentType" : 5126, 
            "count" : 20449, 
            "max" : [
                1.0, 
                0.006800162605941296, 
                0.6602531671524048, 
                1.0
            ], 
            "min" : [
                0.7510430216789246, 
                -0.00835098884999752, 
                -0.6127808690071106, 
                1.0
            ], 
            "type" : "VEC4"
        }, 
        {
            "bufferView" : 4, 
            "componentType" : 5126, 
            "count" : 20449, 
            "max" : [
                0.9944781064987183, 
                0.9944835007190704
            ], 
            "min" : [
                0.000852733850479126, 
                0.0008581876754760742
            ], 
            "type" : "VEC2"
        }
    ], 
    "asset" : {
        "generator" : "Khronos Blender glTF 2.0 exporter", 
        "version" : "2.0"
    }, 
    "bufferViews" : [
        {
            "buffer" : 0, 
            "byteLength" : 241968, 
            "byteOffset" : 0, 
            "target" : 34963
        }, 
        {
            "buffer" : 0, 
            "byteLength" : 245388, 
            "byteOffset" : 241968, 
            "target" : 34962
        }, 
        {
            "buffer" : 0, 
            "byteLength" : 245388, 
            "byteOffset" : 487356, 
            "target" : 34962
        }, 
        {
            "buffer" : 0, 
            "byteLength" : 327184, 
            "byteOffset" : 732744, 
            "target" : 34962
        }, 
        {
            "buffer" : 0, 
            "byteLength" : 163592, 
            "byteOffset" : 1059928, 
            "target" : 34962
        }
    ], 
    "buffers" : [
        {
            "byteLength" : 1223520, 
            "uri" : "terrain.bin"
        }
    ], 
    "images" : [
        {
            "uri" : "Channelled land_color map.png"
        }
    ], 
    "materials" : [
        {
            "name" : "None", 
            "pbrMetallicRoughness" : {
                "baseColorFactor" : [
                    0.800000011920929, 
                    0.800000011920929, 
                    0.800000011920929, 
                    1.0
                ], 
                "baseColorTexture" : {
                    "index" : 0
                }, 
                "metallicFactor" : 0.0
            }
        }
    ], 
    "meshes" : [
        {
            "name" : "Channelled_land_01_TerrainMesh", 
            "primitives" : [
                {
                    "attributes" : {
                        "NORMAL" : 2, 
                        "POSITION" : 1, 
                        "TANGENT" : 3, 
                        "TEXCOORD_0" : 4
                    }, 
                    "indices" : 0, 
                    "material" : 0
                }
            ]
        }
    ], 
    "nodes" : [
        {
            "mesh" : 0, 
            "name" : "Channelled_land_01_TerrainMesh", 
            "rotation" : [
                0.7071068286895752, 
                0.0, 
                -0.0, 
                0.7071068286895752
            ]
        }
    ], 
    "samplers" : [
        {}
    ], 
    "scene" : 0, 
    "scenes" : [
        {
            "name" : "Scene", 
            "nodes" : [
                0
            ]
        }
    ], 
    "textures" : [
        {
            "sampler" : 0, 
            "source" : 0
        }
    ]
}
