{
    "accessors" : [
        {
            "bufferView" : 0, 
            "componentType" : 5123, 
            "count" : 7056, 
            "max" : [
                1273
            ], 
            "min" : [
                0
            ], 
            "type" : "SCALAR"
        }, 
        {
            "bufferView" : 1, 
            "componentType" : 5126, 
            "count" : 1274, 
            "max" : [
                297.4303894042969, 
                16.936386108398438, 
                149.6791534423828
            ], 
            "min" : [
                -297.4302978515625, 
                -12.058802604675293, 
                -149.67918395996094
            ], 
            "type" : "VEC3"
        }, 
        {
            "bufferView" : 2, 
            "componentType" : 5126, 
            "count" : 1274, 
            "max" : [
                0.9660634398460388, 
                0.999969482421875, 
                0.9659413695335388
            ], 
            "min" : [
                -0.9660634398460388, 
                0.25824761390686035, 
                -0.9659413695335388
            ], 
            "type" : "VEC3"
        }, 
        {
            "bufferView" : 3, 
            "componentType" : 5126, 
            "count" : 1274, 
            "max" : [
                0.9999991655349731, 
                0.9660688638687134, 
                0.38531187176704407, 
                -1.0
            ], 
            "min" : [
                0.2582373023033142, 
                -0.9660682678222656, 
                -0.3846638798713684, 
                -1.0
            ], 
            "type" : "VEC4"
        }, 
        {
            "bufferView" : 4, 
            "componentType" : 5126, 
            "count" : 1274, 
            "max" : [
                0.9999270439147949, 
                0.9999270425832947
            ], 
            "min" : [
                7.295741670532152e-05, 
                0.467570960521698
            ], 
            "type" : "VEC2"
        }
    ], 
    "asset" : {
        "generator" : "Khronos Blender glTF 2.0 exporter", 
        "version" : "2.0"
    }, 
    "bufferViews" : [
        {
            "buffer" : 0, 
            "byteLength" : 14112, 
            "byteOffset" : 0, 
            "target" : 34963
        }, 
        {
            "buffer" : 0, 
            "byteLength" : 15288, 
            "byteOffset" : 14112, 
            "target" : 34962
        }, 
        {
            "buffer" : 0, 
            "byteLength" : 15288, 
            "byteOffset" : 29400, 
            "target" : 34962
        }, 
        {
            "buffer" : 0, 
            "byteLength" : 20384, 
            "byteOffset" : 44688, 
            "target" : 34962
        }, 
        {
            "buffer" : 0, 
            "byteLength" : 10192, 
            "byteOffset" : 65072, 
            "target" : 34962
        }
    ], 
    "buffers" : [
        {
            "byteLength" : 75264, 
            "uri" : "track.bin"
        }
    ], 
    "meshes" : [
        {
            "name" : "Torus.000", 
            "primitives" : [
                {
                    "attributes" : {
                        "NORMAL" : 2, 
                        "POSITION" : 1, 
                        "TANGENT" : 3, 
                        "TEXCOORD_0" : 4
                    }, 
                    "indices" : 0
                }
            ]
        }
    ], 
    "nodes" : [
        {
            "mesh" : 0, 
            "name" : "Torus.000"
        }
    ], 
    "scene" : 0, 
    "scenes" : [
        {
            "name" : "Scene", 
            "nodes" : [
                0
            ]
        }
    ]
}
