{
    "accessors" : [
        {
            "bufferView" : 0, 
            "componentType" : 5123, 
            "count" : 2316, 
            "max" : [
                1573
            ], 
            "min" : [
                0
            ], 
            "type" : "SCALAR"
        }, 
        {
            "bufferView" : 1, 
            "componentType" : 5126, 
            "count" : 1574, 
            "max" : [
                35.65497589111328, 
                1.629258155822754, 
                28.335372924804688
            ], 
            "min" : [
                -37.04446029663086, 
                -1.431706428527832, 
                -26.745670318603516
            ], 
            "type" : "VEC3"
        }, 
        {
            "bufferView" : 2, 
            "componentType" : 5126, 
            "count" : 1574, 
            "max" : [
                0.32956936955451965, 
                1.0, 
                0.4499343931674957
            ], 
            "min" : [
                -0.42527541518211365, 
                0.8682821393013, 
                -0.4115115702152252
            ], 
            "type" : "VEC3"
        }, 
        {
            "bufferView" : 3, 
            "componentType" : 5126, 
            "count" : 1574, 
            "max" : [
                0.9999681115150452, 
                0.3006271719932556, 
                0.9999569654464722, 
                -1.0
            ], 
            "min" : [
                -0.9999988079071045, 
                -0.3755209147930145, 
                -0.9999998807907104, 
                -1.0
            ], 
            "type" : "VEC4"
        }, 
        {
            "bufferView" : 4, 
            "componentType" : 5126, 
            "count" : 1574, 
            "max" : [
                0.999988317489624, 
                0.9999440858373418
            ], 
            "min" : [
                -7.339840522035956e-06, 
                2.777576446533203e-05
            ], 
            "type" : "VEC2"
        }
    ], 
    "asset" : {
        "generator" : "Khronos Blender glTF 2.0 exporter", 
        "version" : "2.0"
    }, 
    "bufferViews" : [
        {
            "buffer" : 0, 
            "byteLength" : 4632, 
            "byteOffset" : 0, 
            "target" : 34963
        }, 
        {
            "buffer" : 0, 
            "byteLength" : 18888, 
            "byteOffset" : 4632, 
            "target" : 34962
        }, 
        {
            "buffer" : 0, 
            "byteLength" : 18888, 
            "byteOffset" : 23520, 
            "target" : 34962
        }, 
        {
            "buffer" : 0, 
            "byteLength" : 25184, 
            "byteOffset" : 42408, 
            "target" : 34962
        }, 
        {
            "buffer" : 0, 
            "byteLength" : 12592, 
            "byteOffset" : 67592, 
            "target" : 34962
        }
    ], 
    "buffers" : [
        {
            "byteLength" : 80184, 
            "uri" : "track1.bin"
        }
    ], 
    "images" : [
        {
            "uri" : "road_yellow.png"
        }
    ], 
    "materials" : [
        {
            "name" : "Material", 
            "pbrMetallicRoughness" : {
                "baseColorFactor" : [
                    0.6400000190734865, 
                    0.6400000190734865, 
                    0.6400000190734865, 
                    1.0
                ], 
                "baseColorTexture" : {
                    "index" : 0
                }, 
                "metallicFactor" : 0.0
            }
        }
    ], 
    "meshes" : [
        {
            "name" : "track", 
            "primitives" : [
                {
                    "attributes" : {
                        "NORMAL" : 2, 
                        "POSITION" : 1, 
                        "TANGENT" : 3, 
                        "TEXCOORD_0" : 4
                    }, 
                    "indices" : 0, 
                    "material" : 0
                }
            ]
        }
    ], 
    "nodes" : [
        {
            "mesh" : 0, 
            "name" : "NurbsPath.003", 
            "scale" : [
                25.0, 
                25.0, 
                25.0
            ]
        }
    ], 
    "samplers" : [
        {}
    ], 
    "scene" : 0, 
    "scenes" : [
        {
            "name" : "Scene", 
            "nodes" : [
                0
            ]
        }
    ], 
    "textures" : [
        {
            "sampler" : 0, 
            "source" : 0
        }
    ]
}
