{
    "accessors" : [
        {
            "bufferView" : 0, 
            "componentType" : 5123, 
            "count" : 11952, 
            "max" : [
                2175
            ], 
            "min" : [
                0
            ], 
            "type" : "SCALAR"
        }, 
        {
            "bufferView" : 1, 
            "componentType" : 5126, 
            "count" : 2176, 
            "max" : [
                298.85235595703125, 
                67.30477142333984, 
                271.4635009765625
            ], 
            "min" : [
                -293.44915771484375, 
                -15.525398254394531, 
                -266.9314270019531
            ], 
            "type" : "VEC3"
        }, 
        {
            "bufferView" : 2, 
            "componentType" : 5126, 
            "count" : 2176, 
            "max" : [
                0.9663380980491638, 
                1.0, 
                0.9660634398460388
            ], 
            "min" : [
                -0.9660939574241638, 
                0.2379833310842514, 
                -0.9661244750022888
            ], 
            "type" : "VEC3"
        }, 
        {
            "bufferView" : 3, 
            "componentType" : 5126, 
            "count" : 2176, 
            "max" : [
                -0.25660839676856995, 
                0.9663544297218323, 
                0.057296015322208405, 
                1.0
            ], 
            "min" : [
                -1.0, 
                -0.9665154218673706, 
                -0.03389449790120125, 
                1.0
            ], 
            "type" : "VEC4"
        }, 
        {
            "bufferView" : 4, 
            "componentType" : 5126, 
            "count" : 2176, 
            "max" : [
                0.9878212809562683, 
                0.95488440990448
            ], 
            "min" : [
                0.017040789127349854, 
                0.06952828168869019
            ], 
            "type" : "VEC2"
        }
    ], 
    "asset" : {
        "generator" : "Khronos Blender glTF 2.0 exporter", 
        "version" : "2.0"
    }, 
    "bufferViews" : [
        {
            "buffer" : 0, 
            "byteLength" : 23904, 
            "byteOffset" : 0, 
            "target" : 34963
        }, 
        {
            "buffer" : 0, 
            "byteLength" : 26112, 
            "byteOffset" : 23904, 
            "target" : 34962
        }, 
        {
            "buffer" : 0, 
            "byteLength" : 26112, 
            "byteOffset" : 50016, 
            "target" : 34962
        }, 
        {
            "buffer" : 0, 
            "byteLength" : 34816, 
            "byteOffset" : 76128, 
            "target" : 34962
        }, 
        {
            "buffer" : 0, 
            "byteLength" : 17408, 
            "byteOffset" : 110944, 
            "target" : 34962
        }
    ], 
    "buffers" : [
        {
            "byteLength" : 128352, 
            "uri" : "track2.bin"
        }
    ], 
    "meshes" : [
        {
            "name" : "Torus.004", 
            "primitives" : [
                {
                    "attributes" : {
                        "NORMAL" : 2, 
                        "POSITION" : 1, 
                        "TANGENT" : 3, 
                        "TEXCOORD_0" : 4
                    }, 
                    "indices" : 0
                }
            ]
        }
    ], 
    "nodes" : [
        {
            "mesh" : 0, 
            "name" : "Torus.001"
        }
    ], 
    "scene" : 0, 
    "scenes" : [
        {
            "name" : "Scene", 
            "nodes" : [
                0
            ]
        }
    ]
}
